<svg xmlns="http://www.w3.org/2000/svg" viewBox="0 0 64 64">
  <rect width="64" height="64" fill="#283618"/>
  <g transform="translate(6.4 25.895) scale(3.183)">
    <g transform="translate(-96.95892 -146.58216)">
      <g transform="translate(68.119292 1.3250202)">
        <path fill="#e3d5c5" d="m 37.825165,145.90505 0.03104,-0.005 c 0.26282,-0.28505 0.522112,-0.51223 0.918281,-0.57997 0.522464,-0.0896 1.05798,0.0437 1.337733,0.52 0.01376,0.0229 0.02611,0.0822 0.05821,0.06 0.294216,-0.27834 0.607836,-0.53058 1.023408,-0.58667 0.804333,-0.10866 1.431219,0.26846 1.466497,1.12007 0.02611,0.63041 -0.03034,1.28376 -3.53e-4,1.91276 0.01094,0.22578 0.08819,0.3489 0.327378,0.36618 0.06879,0.005 0.208139,-0.0212 0.245181,0.0508 0.04586,0.0889 0.01729,0.24624 -0.09984,0.25682 -0.06138,0.006 -0.148519,-0.01 -0.212372,-0.0116 -0.416983,-0.0145 -0.835378,-0.0138 -1.252361,0 -0.06385,0.002 -0.144286,0.0159 -0.20708,0.0116 -0.122414,-0.008 -0.148167,-0.14851 -0.111125,-0.24623 0.01482,-0.0395 0.03916,-0.0487 0.07867,-0.0554 0.08361,-0.0138 0.168628,3.5e-4 0.254706,-0.0187 0.184855,-0.0409 0.243416,-0.17533 0.24518,-0.35348 l -3.53e-4,-1.95157 c -0.05186,-0.54433 -0.582789,-0.75 -1.067505,-0.62053 -0.25647,0.0681 -0.490361,0.27481 -0.608895,0.50905 -0.0018,0.68016 0.0032,1.36102 -0.0063,2.04012 -0.0032,0.23107 0.0448,0.36689 0.300214,0.38841 0.0762,0.006 0.224014,-0.0261 0.255059,0.0631 0.03175,0.0914 0.01164,0.2346 -0.104775,0.24518 -0.0628,0.006 -0.152753,-0.01 -0.218017,-0.0116 -0.397228,-0.0134 -0.794103,-0.0134 -1.190978,0 -0.06526,0.002 -0.155222,0.0173 -0.218016,0.0116 -0.1143,-0.0106 -0.13335,-0.14428 -0.106187,-0.23495 0.02046,-0.0688 0.08185,-0.0691 0.145345,-0.073 0.174625,-0.0106 0.323497,0.0134 0.388761,-0.18697 0.03422,-0.10513 0.01729,-0.18062 0.01623,-0.28505 -0.0049,-0.61312 0.0046,-1.22661 3.53e-4,-1.83973 -0.04833,-0.54928 -0.572206,-0.75671 -1.061861,-0.62618 -0.255412,0.0677 -0.49142,0.27904 -0.614539,0.50905 l -7.06e-4,2.05211 c -0.0032,0.2279 0.0949,0.36019 0.327378,0.37712 0.06809,0.005 0.21343,-0.0212 0.248003,0.0536 0.03986,0.0868 0.0187,0.24342 -0.09701,0.254 -0.0628,0.006 -0.152753,-0.01 -0.218017,-0.0116 -0.416983,-0.0141 -0.835378,-0.0141 -1.252361,0 -0.09666,0.004 -0.200378,0.0286 -0.290689,-0.0113 -0.394758,0.0183 -0.790222,0.0695 -1.18498,0.0843 -0.02505,7e-4 -0.06597,0.003 -0.0889,-3.5e-4 -0.04304,-0.007 -0.04551,-0.0575 -0.04798,-0.0921 -0.01199,-0.16616 0.01129,-0.34431 -0.0028,-0.51153 -0.06914,0.0497 -0.128411,0.1143 -0.192617,0.17075 -0.294569,0.25823 -0.531636,0.4064 -0.936625,0.43885 -0.732719,0.0582 -1.280583,-0.32244 -1.338439,-1.07668 -0.01623,-0.56691 0.02117,-1.14546 0,-1.71097 -0.0074,-0.19967 -0.02716,-0.35242 -0.256116,-0.39264 -0.07796,-0.0138 -0.226484,7.1e-4 -0.28822,-0.0356 -0.08431,-0.0501 -0.06562,-0.23954 0.03422,-0.27199 0.243416,-0.0406 0.486127,-0.0829 0.722488,-0.15522 0.08079,-0.0247 0.160867,-0.0589 0.241653,-0.0825 0.119239,-0.0346 0.259645,-0.0624 0.272697,0.10477 l -3.52e-4,2.49449 c 0.04022,0.69392 0.838552,0.8502 1.35255,0.53587 0.150636,-0.0921 0.302683,-0.22754 0.38735,-0.38417 0.01023,-0.60854 0.0011,-1.21991 0.0046,-1.82986 -0.01164,-0.0695 -0.0011,-0.14076 -0.02716,-0.20743 -0.04516,-0.1143 -0.158045,-0.16193 -0.27305,-0.17463 -0.102306,-0.0113 -0.26282,0.0247 -0.291042,-0.10548 -0.0187,-0.0868 0.0078,-0.17357 0.09878,-0.20002 0.126647,-0.0367 0.29845,-0.048 0.435328,-0.079 0.180269,-0.0413 0.337608,-0.10442 0.510822,-0.15451 0.1143,-0.0328 0.257175,-0.0632 0.272697,0.0991 l -3.53e-4,2.81305 c 0.01764,0.28927 0.232128,0.40216 0.494948,0.42756 0.119238,0.0117 0.296333,0.0236 0.410986,-0.002 0.275519,-0.0628 0.239183,-0.32067 0.239888,-0.54257 0.0025,-0.59443 0.0032,-1.18956 0,-1.784 -0.0014,-0.31538 0.03986,-0.52528 -0.348897,-0.55597 -0.08326,-0.007 -0.207433,0.0183 -0.236008,-0.0885 -0.02187,-0.0808 -0.0028,-0.17251 0.07973,-0.20779 0.231775,-0.0416 0.463902,-0.0815 0.690033,-0.14852 0.07796,-0.0229 0.153106,-0.0536 0.230364,-0.0769 0.08184,-0.0243 0.225425,-0.0765 0.282928,0.0109 0.0056,0.008 0.02328,0.0473 0.02328,0.055 z"/>
        <path fill="#e3d5c5" d="m 31.162287,147.18549 c -0.272697,0.0201 -0.553508,0.0512 -0.817386,0.12453 -0.381706,0.10619 -0.650875,0.28046 -0.691797,0.70591 -0.0314,0.32491 0.07479,0.61489 0.438855,0.63994 0.469547,0.0325 0.900642,-0.26917 1.029759,-0.72002 0.06914,-0.24236 0.03069,-0.50059 0.04057,-0.75036 m -0.0056,1.27494 c -0.2032,0.387 -0.672042,0.5909 -1.092906,0.62618 -0.74683,0.0628 -1.364544,-0.40393 -1.196269,-1.20227 0.123825,-0.58808 0.771525,-0.77822 1.292225,-0.84913 0.331963,-0.0452 0.667808,-0.0677 1.002594,-0.0847 v -0.7239 c -0.03104,-0.50765 -0.372886,-0.72461 -0.858308,-0.69638 -0.334434,0.019 -0.630061,0.28963 -0.559153,0.64346 0.03034,0.14993 0.134056,0.20497 0.230011,0.30128 0.02928,0.0296 0.01058,0.054 -0.01199,0.084 -0.05962,0.0783 -0.182386,0.13299 -0.279048,0.14005 -0.364066,0.0265 -0.573263,-0.30127 -0.555977,-0.63465 0.04163,-0.80645 1.274233,-0.84067 1.849966,-0.71014 0.561975,0.12735 0.859014,0.4064 0.888647,1.00118 v 1.96815 c 0.0254,0.20426 0.110067,0.41734 0.33902,0.44944 0.07373,0.0102 0.176036,-0.0162 0.1905,0.0833 0.02046,0.13899 -0.07408,0.17497 -0.189442,0.20425 -0.32385,0.0822 -0.678391,0.002 -0.898878,-0.25647 -0.08396,-0.0984 -0.115005,-0.20531 -0.140052,-0.32914 -0.0014,-0.007 -0.0028,-0.0134 -0.01094,-0.0145"/>
        <path fill="#e3d5c5" d="m 44.386268,148.09301 c 0.352425,-0.0127 0.605367,0.28998 0.518231,0.63571 -0.12065,0.47871 -0.872067,0.48859 -0.989542,0 -0.07867,-0.32703 0.132997,-0.62372 0.471311,-0.63571"/>
      </g>
    </g>
  </g>
</svg>
